<?xml version="1.0" encoding="UTF-8"?>
<svg id="Layer_1" xmlns="http://www.w3.org/2000/svg" version="1.1" viewBox="0 0 100 100.4">
  <!-- Generator: Adobe Illustrator 29.7.1, SVG Export Plug-In . SVG Version: 2.1.1 Build 8)  -->
  <defs>
    <style>
      .st0 {
        fill: red;
      }
    </style>
  </defs>
  <path class="st0" d="M93,0v6s7,0,7,0v87h-7s0,7,0,7H6v-7s-6,0-6,0V5.9h6s0-6,0-6h87ZM25,24.9h-7v6s-6,0-6,0v6h6s0,6,0,6h7v-6s6,0,6,0v-6h-6s0-6,0-6ZM81,24.9h-6s0,6,0,6h-7s0,6,0,6h7s0,6,0,6h6s0-6,0-6h6s0-6,0-6h-6s0-6,0-6ZM56,74.9c-.2-6.3.2-12.7,0-19h6s0-6,0-6h-25v6s6,0,6,0c-.2,6.3.2,12.7,0,19-6,0-12,.2-18,0-.1-2.3,0-4.7,0-7h-7s0,7,0,7c2.3,0,4.7,0,7,0,0,1.4-.5,5.8.6,6h17.4c0-2,0-4,0-6,4.3,0,8.7,0,13,0,0,2,0,4,0,6h18.4c1.1-.2.5-4.6.6-6,2,0,4,0,6,0v-7s-6,0-6,0c0,2.3.1,4.7,0,7-6.3.2-12.7,0-19,0Z"/>
</svg>